<svg width="144" height="41" viewBox="0 0 144 41" fill="none" xmlns="http://www.w3.org/2000/svg">
<g clip-path="url(#clip0)">
<path d="M8.98351 27.2566C12.1666 32.2649 19.1115 34.4908 24.6318 32.2872C30.1521 30.0835 33.6246 23.6728 32.4671 17.8409C31.599 13.4335 28.2601 9.60492 24.0308 8.06902C19.4676 6.39958 13.0347 7.17865 10.23 11.4524C7.06921 16.2159 5.73365 22.1592 8.98351 27.2566Z" fill="#1D957F"/>
<path d="M32.4671 17.8631C31.8438 14.7246 29.974 11.8754 27.4142 9.9388C27.9039 10.9405 28.2823 12.0089 28.5049 13.0996C29.6624 18.9316 26.19 25.3423 20.6696 27.5459C16.5962 29.1709 11.7659 28.3918 8.22668 25.8542C8.44928 26.3439 8.71639 26.8114 9.00576 27.2788C12.1888 32.2872 19.1338 34.5131 24.6541 32.3094C30.1299 30.0835 33.6023 23.6951 32.4671 17.8631Z" fill="#25602E"/>
<path d="M24.4983 10.4285C26.5016 11.9421 30.3079 4.70785 30.3079 4.70785L31.6658 5.73178C31.6658 5.73178 25.7893 11.4079 27.8149 12.9215" fill="#1D957F"/>
<path d="M32.4671 6.11019C32.89 4.26267 29.6846 2.48192 29.2617 4.50752C28.8611 6.46634 31.9774 8.24708 32.4671 6.11019Z" fill="#1D957F"/>
<path d="M30.9312 4.19589C30.575 3.68393 29.4176 4.06234 29.8182 4.61882C30.2189 5.15304 31.3319 4.77464 30.9312 4.19589Z" fill="#25602E"/>
<path d="M32.3335 5.01948C32.3335 5.13078 32.3113 5.24208 32.289 5.35337C31.8883 7.04508 29.8627 6.26601 29.2395 4.90819C29.284 6.68893 32.0219 8.11353 32.4671 6.11019C32.5561 5.73178 32.4893 5.35337 32.3335 5.01948Z" fill="#25602E"/>
<path d="M30.9757 19.4435C30.7531 21.9588 38.9 21.3578 38.9 21.3578L38.7442 23.0495C38.7442 23.0495 30.8199 21.0685 30.5973 23.5838" fill="#25602E"/>
<path d="M38.8555 23.9399C40.6363 23.3389 40.4805 19.6661 38.5216 20.3784C36.6519 21.0684 36.7854 24.6522 38.8555 23.9399Z" fill="#25602E"/>
<path d="M39.6568 21.6027C39.9017 21.0239 38.9668 20.2671 38.6997 20.8904C38.4771 21.5136 39.3675 22.2705 39.6568 21.6027Z" fill="#1D957F"/>
<path d="M39.7014 23.2499C39.6123 23.3167 39.5011 23.3612 39.3898 23.3834C37.7426 23.9399 37.3196 21.803 38.1655 20.5565C36.6741 21.5359 36.919 24.6077 38.8555 23.9399C39.2117 23.8064 39.5011 23.5615 39.7014 23.2499Z" fill="#1D957F"/>
<path d="M27.3252 28.0801C25.5444 28.926 29.2172 34.1792 29.2172 34.1792L28.0152 34.7579C28.0152 34.7579 26.1677 28.6366 24.387 29.5047" fill="#25602E"/>
<path d="M27.481 35.1809C28.6162 36.138 30.9979 34.5576 29.7514 33.5337C28.5272 32.532 26.1677 34.0679 27.481 35.1809Z" fill="#25602E"/>
<path d="M29.373 34.7802C29.8627 34.7134 29.9963 33.7785 29.4621 33.8676C28.9501 33.9344 28.8165 34.847 29.373 34.7802Z" fill="#1D957F"/>
<path d="M28.2823 35.4702C28.2156 35.4257 28.1265 35.3812 28.0597 35.3144C27.0136 34.4463 28.2823 33.2888 29.4621 33.3556C28.1933 32.7323 26.2345 34.1347 27.4587 35.1809C27.7036 35.3589 27.993 35.448 28.2823 35.4702Z" fill="#1D957F"/>
<path d="M22.6062 31.2187C20.0909 31.2855 21.6045 39.3211 21.6045 39.3211L19.9128 39.3656C19.9128 39.3656 20.959 31.2632 18.4437 31.3523" fill="#25602E"/>
<path d="M19.0447 39.566C19.8683 41.2799 23.4966 40.6789 22.5394 38.8314C21.6491 37.0507 18.1098 37.5849 19.0447 39.566Z" fill="#25602E"/>
<path d="M19.8461 40.345C19.7793 40.256 19.7125 40.167 19.668 40.0557C18.9112 38.4975 21.0035 37.8075 22.3391 38.4975C21.1816 37.1174 18.1766 37.7184 19.0447 39.566C19.2228 39.9221 19.5122 40.167 19.8461 40.345Z" fill="#1D957F"/>
<path d="M14.5261 10.0946C16.8633 9.13747 12.5673 2.1703 12.5673 2.1703L14.1254 1.52478C14.1254 1.52478 16.0397 9.47136 18.3547 8.49195" fill="#1D957F"/>
<path d="M14.8822 1.03507C13.5022 -0.278229 10.3413 1.56929 11.855 2.97163C13.3463 4.32945 16.4626 2.5487 14.8822 1.03507Z" fill="#1D957F"/>
<path d="M12.4337 1.39123C11.8104 1.43575 11.5656 2.61549 12.2334 2.54871C12.9011 2.50419 13.146 1.34671 12.4337 1.39123Z" fill="#25602E"/>
<path d="M13.8583 0.589874C13.9473 0.656652 14.0364 0.72343 14.1254 0.812468C15.3942 2.01447 13.6802 3.37229 12.1888 3.21648C13.747 4.08459 16.3513 2.45966 14.8822 1.03506C14.5928 0.767949 14.2367 0.634393 13.8583 0.589874Z" fill="#25602E"/>
<path d="M9.13932 18.5977C9.98517 16.2159 1.94955 14.7913 1.94955 14.7913L2.50604 13.1887C2.50604 13.1887 9.71806 17.0618 10.5194 14.6578" fill="#1D957F"/>
<path d="M2.61734 12.2983C0.725297 12.4541 -0.00926107 16.0601 2.06086 15.8375C4.04194 15.6372 4.79875 12.1202 2.61734 12.2983Z" fill="#1D957F"/>
<path d="M1.25951 14.3684C0.881104 14.8581 1.5934 15.8375 1.99407 15.281C2.39474 14.7468 1.7047 13.7897 1.25951 14.3684Z" fill="#25602E"/>
<path d="M1.61566 12.7657C1.72696 12.7435 1.83825 12.7212 1.94955 12.699C3.68578 12.5654 3.57448 14.7245 2.46152 15.7485C4.15322 15.1697 4.66519 12.1425 2.63959 12.2983C2.21666 12.3428 1.88277 12.5209 1.61566 12.7657Z" fill="#25602E"/>
<path d="M13.0792 28.7257C11.6101 26.6778 5.84493 32.4652 5.84493 32.4652L4.84326 31.0852C4.84326 31.0852 12.1221 27.3679 10.6307 25.3423" fill="#25602E"/>
<path d="M4.19774 30.5064C3.24059 32.1536 5.77816 34.8025 6.77983 32.9772C7.73698 31.2187 5.28845 28.6144 4.19774 30.5064Z" fill="#25602E"/>
<path d="M5.1104 32.7991C5.31073 33.4001 6.51273 33.3556 6.29014 32.7101C6.06755 32.0868 4.8878 32.1091 5.1104 32.7991Z" fill="#1D957F"/>
<path d="M3.99741 31.5971C4.01967 31.4858 4.06419 31.3968 4.13097 31.2855C4.99908 29.7718 6.73531 31.1074 6.91338 32.621C7.40309 30.9071 5.19941 28.7479 4.17549 30.5064C3.99741 30.8403 3.95289 31.2187 3.99741 31.5971Z" fill="#1D957F"/>
<path d="M20.3803 8.69228C22.2501 9.11521 22.6062 2.8826 22.6062 2.8826L23.875 3.14971C23.875 3.14971 21.6045 8.95939 23.4743 9.36006" fill="#1D957F"/>
<path d="M24.565 3.17197C24.2757 1.74738 21.4932 1.52478 21.8271 3.06068C22.1833 4.57431 24.8989 4.81916 24.565 3.17197Z" fill="#1D957F"/>
<path d="M22.8733 2.3261C22.4726 2.08125 21.7826 2.72677 22.25 2.97162C22.6952 3.21648 23.363 2.61548 22.8733 2.3261Z" fill="#25602E"/>
<path d="M24.1199 2.45966C24.1644 2.52644 24.1866 2.61548 24.2089 2.70452C24.476 3.99556 22.8066 4.10685 21.9384 3.35004C22.5394 4.5743 24.8767 4.68559 24.565 3.17196C24.5205 2.88259 24.3424 2.63774 24.1199 2.45966Z" fill="#25602E"/>
<path d="M29.1505 14.4352C30.1966 16.0379 34.8043 11.8308 34.8043 11.8308L35.5166 12.9215C35.5166 12.9215 29.8405 15.5036 30.9089 17.1063" fill="#25602E"/>
<path d="M36.0063 13.389C36.7854 12.1647 34.9379 10.0501 34.1143 11.4079C33.313 12.7212 35.0937 14.7913 36.0063 13.389Z" fill="#25602E"/>
<path d="M35.3831 11.6082C35.2495 11.1408 34.3369 11.1408 34.4704 11.6305C34.6262 12.1202 35.5389 12.1425 35.3831 11.6082Z" fill="#1D957F"/>
<path d="M36.1844 12.5654C36.1621 12.6544 36.1176 12.7212 36.0731 12.788C35.3608 13.901 34.092 12.8325 34.003 11.675C33.5801 12.9661 35.1827 14.68 36.0063 13.3667C36.1621 13.1441 36.2067 12.8548 36.1844 12.5654Z" fill="#1D957F"/>
<path d="M17.3975 31.3523C15.8171 30.2616 13.1683 35.9154 13.1683 35.9154L12.0998 35.1809C12.0998 35.1809 16.3736 30.64 14.7709 29.5715" fill="#25602E"/>
<path d="M11.4766 34.9138C11.2094 36.3384 13.7247 37.5849 13.9696 36.0267C14.2145 34.5131 11.7659 33.2666 11.4766 34.9138Z" fill="#25602E"/>
<path d="M12.7231 36.3161C13.0124 36.6945 13.8806 36.3606 13.5467 35.9599C13.235 35.5593 12.3892 35.8932 12.7231 36.3161Z" fill="#1D957F"/>
<path d="M11.6101 35.7374C11.6101 35.6483 11.6101 35.5593 11.6324 35.4925C11.8772 34.1792 13.4576 34.6912 13.9696 35.7151C13.8806 34.3573 11.7437 33.3779 11.4543 34.9138C11.4098 35.2031 11.4765 35.4925 11.6101 35.7374Z" fill="#1D957F"/>
<path d="M30.0186 25.6316C29.195 27.3678 35.1827 29.1041 35.1827 29.1041L34.6262 30.2838C34.6262 30.2838 29.4843 26.7668 28.6607 28.5031" fill="#25602E"/>
<path d="M34.4704 30.9516C35.9173 30.9961 36.7632 28.325 35.1827 28.3027C33.6468 28.3027 32.801 30.9071 34.4704 30.9516Z" fill="#25602E"/>
<path d="M35.6724 29.4825C36.0063 29.1263 35.5389 28.3473 35.1827 28.7257C34.8266 29.1041 35.2718 29.8832 35.6724 29.4825Z" fill="#1D957F"/>
<path d="M35.2718 30.6622C35.1827 30.6845 35.0937 30.6845 35.0269 30.6845C33.6913 30.64 33.9585 29.015 34.8934 28.325C33.5578 28.6366 32.9345 30.8848 34.4927 30.9293C34.7598 30.9516 35.0269 30.8403 35.2718 30.6622Z" fill="#1D957F"/>
<path d="M10.3858 13.389C11.7214 12.0089 6.60175 8.44743 6.60175 8.44743L7.49212 7.51254C7.49212 7.51254 11.2539 12.4986 12.5895 11.0963" fill="#1D957F"/>
<path d="M7.87054 6.9338C6.51272 6.44409 4.84327 8.69229 6.3569 9.20425C7.80376 9.69396 9.42869 7.51254 7.87054 6.9338Z" fill="#1D957F"/>
<path d="M6.26785 7.93545C5.84493 8.15805 6.023 9.07068 6.49045 8.80357C6.91337 8.55872 6.75756 7.66834 6.26785 7.93545Z" fill="#25602E"/>
<path d="M7.02468 6.93378C7.11372 6.93378 7.18049 6.95604 7.26953 7.00055C8.51606 7.44574 7.73698 8.93712 6.64627 9.271C8.00409 9.40456 9.33965 7.468 7.87053 6.93378C7.58116 6.82248 7.29179 6.84474 7.02468 6.93378Z" fill="#25602E"/>
<path d="M9.42868 24.3183C9.18383 22.404 3.19607 24.1625 3.19607 24.1625L3.04025 22.8715C3.04025 22.8715 9.27286 23.0718 9.02801 21.1575" fill="#1D957F"/>
<path d="M2.83994 22.2482C1.59342 23.005 2.32798 25.6984 3.66354 24.8525C4.95458 24.0289 4.26454 21.3801 2.83994 22.2482Z" fill="#1D957F"/>
<path d="M2.59507 24.118C2.50603 24.5854 3.32963 25.0083 3.41866 24.4964C3.5077 23.9844 2.70637 23.5838 2.59507 24.118Z" fill="#25602E"/>
<path d="M2.30573 22.8937C2.3725 22.8269 2.43928 22.7824 2.50606 22.7379C3.64128 22.0479 4.30906 23.5838 3.88614 24.6522C4.84329 23.6728 4.15325 21.4246 2.81769 22.2259C2.57284 22.404 2.41702 22.6266 2.30573 22.8937Z" fill="#25602E"/>
<path d="M12.1666 14.8359C11.9217 14.7913 11.6769 14.7468 11.432 14.8359C11.1872 14.9249 11.0314 15.1475 10.9423 15.4146C10.8755 15.6594 10.8755 15.9266 10.9201 16.1714C11.0981 17.1286 11.8104 17.9967 12.7231 18.3083C13.6802 18.6645 15.1271 18.0412 14.7487 16.8169C14.4593 15.8375 13.1237 15.0584 12.1666 14.8359Z" fill="#25602E"/>
<path d="M26.279 20.2003C26.4348 19.911 26.5461 19.5771 26.5238 19.2654C26.4793 18.9316 26.2567 18.6199 25.9674 18.4419C25.678 18.2638 25.3218 18.1747 24.9879 18.1525C23.6746 18.0412 22.3391 18.6644 21.6045 19.7552C20.8255 20.8904 21.1371 22.9605 22.8288 22.8715C24.2311 22.8047 25.678 21.3578 26.279 20.2003Z" fill="#25602E"/>
<path d="M13.0124 21.5582C12.634 21.4691 12.2556 21.4024 11.8995 21.5359C11.5211 21.6695 11.2539 22.0034 11.1204 22.3818C10.9868 22.7602 10.9868 23.1608 11.0314 23.5615C11.2317 25.0751 12.3001 26.433 13.7025 27.0117C15.1716 27.6127 17.442 26.7446 16.9301 24.8303C16.4849 23.2276 14.4815 21.9588 13.0124 21.5582Z" fill="#25602E"/>
<path d="M15.9952 19.4658C15.8394 19.5993 15.6835 19.7552 15.6168 19.9332C15.55 20.1336 15.6168 20.3784 15.7281 20.5565C15.8394 20.7346 16.0174 20.8681 16.2178 20.9794C16.9301 21.3801 17.865 21.3578 18.555 20.9349C19.2895 20.4897 19.6457 19.2209 18.644 18.8425C17.8204 18.5086 16.6184 18.9538 15.9952 19.4658Z" fill="#25602E"/>
<path d="M18.5995 25.9655C18.6218 26.1436 18.6886 26.3439 18.7999 26.4775C18.9334 26.611 19.1337 26.6778 19.3341 26.6556C19.5344 26.6333 19.7125 26.5665 19.8906 26.4552C20.5361 26.0546 20.9368 25.32 20.9145 24.5632C20.8922 23.7841 20.0464 22.9382 19.2896 23.5393C18.6663 24.0735 18.4882 25.231 18.5995 25.9655Z" fill="#25602E"/>
<path d="M17.1527 10.473C16.663 10.5621 16.1733 10.7179 15.8394 11.1185C15.4832 11.5192 15.3719 12.1425 15.461 12.7212C15.55 13.3 15.7949 13.8564 16.1065 14.3461C17.2862 16.2382 19.3564 17.4179 21.3374 17.3289C23.4076 17.2399 25.4777 14.7023 23.6969 12.4541C22.2055 10.6288 19.1115 10.1169 17.1527 10.473Z" fill="#25602E"/>
<path d="M10.3636 27.1007C11.0314 27.4124 11.7437 27.6795 12.456 27.8798L10.6307 25.3645C11.0091 25.8765 10.831 26.4775 10.3636 27.1007Z" fill="#1D957F"/>
<path d="M27.9262 10.3617C27.7704 10.8069 27.57 11.2298 27.5032 11.675C27.4587 11.8976 27.4587 12.1202 27.481 12.3428C27.5032 12.4541 27.5478 12.5654 27.5923 12.6544C27.6368 12.7435 27.7258 12.8325 27.8149 12.9215C27.7036 12.8548 27.6145 12.788 27.5478 12.699C27.481 12.6099 27.4142 12.4986 27.3697 12.3651C27.3252 12.2538 27.3252 12.1202 27.3252 12.0089C27.3252 11.8976 27.3252 11.7641 27.3474 11.6528C27.3919 11.4079 27.4587 11.1853 27.57 10.985C27.6813 10.7624 27.7926 10.5621 27.9262 10.3617Z" fill="#25602E"/>
<path d="M24.4982 10.4285C24.6986 10.5398 24.9212 10.6066 25.1438 10.5843C25.3663 10.5621 25.5889 10.4953 25.7893 10.384C25.9896 10.2727 26.1899 10.1614 26.368 10.0279C26.5461 9.87204 26.7242 9.73848 26.9245 9.60493C26.7687 9.783 26.6129 9.96108 26.4348 10.1169C26.2567 10.2727 26.0564 10.4063 25.856 10.5176C25.6335 10.6289 25.4109 10.6956 25.166 10.6956C25.0325 10.6956 24.9212 10.6734 24.8099 10.6289C24.6763 10.5843 24.5873 10.5176 24.4982 10.4285Z" fill="#25602E"/>
<path d="M32.4671 22.3595C32.2667 22.404 32.0664 22.4708 31.8883 22.5153C31.688 22.5821 31.5099 22.6266 31.3319 22.7157C31.1538 22.8047 30.998 22.916 30.8644 23.0495C30.7309 23.1831 30.6418 23.3612 30.5973 23.5615C30.575 23.3612 30.6418 23.1386 30.7754 22.9605C30.9089 22.7824 31.087 22.6489 31.2651 22.5598C31.6435 22.4263 32.0664 22.3595 32.4671 22.3595Z" fill="#25602E"/>
<path d="M30.9757 19.4435C30.9757 19.6661 31.0425 19.8442 31.1538 20.0223C31.2651 20.1781 31.4209 20.3339 31.5767 20.4452C31.7325 20.5565 31.9328 20.6678 32.1109 20.7568C32.289 20.8459 32.4893 20.9349 32.6897 21.0239C32.4893 21.0017 32.2667 20.9572 32.0664 20.8681C31.8661 20.8013 31.6657 20.7123 31.4877 20.5788C31.3096 20.4452 31.1538 20.2894 31.0425 20.0891C30.9534 19.8887 30.9312 19.6439 30.9757 19.4435Z" fill="#25602E"/>
<path d="M16.5071 7.55705C16.7743 7.82416 17.0191 8.11353 17.3307 8.31387C17.4865 8.42516 17.6424 8.49194 17.8204 8.53646C17.9985 8.58098 18.1766 8.58098 18.3547 8.5142C18.1988 8.6255 17.9985 8.67002 17.7982 8.64776C17.5978 8.6255 17.4198 8.53646 17.2417 8.44742C16.9301 8.20257 16.6852 7.89094 16.5071 7.55705Z" fill="#25602E"/>
<path d="M14.5261 10.0946C14.7041 9.98331 14.86 9.84976 14.949 9.67168C15.038 9.49361 15.1048 9.31553 15.1271 9.1152C15.1493 8.91487 15.1493 8.71453 15.1493 8.5142C15.1493 8.31386 15.1271 8.11353 15.1271 7.89094C15.2606 8.29161 15.3274 8.69227 15.2829 9.13746C15.2606 9.33779 15.1938 9.56039 15.0603 9.73846C14.9267 9.91654 14.7264 10.0501 14.5261 10.0946Z" fill="#25602E"/>
<path d="M8.18216 15.3701C8.40475 15.3701 8.62735 15.3923 8.84994 15.3923C9.07253 15.3923 9.29513 15.3923 9.49546 15.3478C9.69579 15.3256 9.91839 15.2588 10.0965 15.1475C10.2745 15.0362 10.4304 14.8804 10.5194 14.68C10.4749 14.9026 10.3413 15.103 10.1632 15.2365C9.98517 15.3701 9.74031 15.4591 9.51772 15.4814C9.29513 15.5259 9.07253 15.5259 8.84994 15.5036C8.62735 15.4814 8.40475 15.4369 8.18216 15.3701Z" fill="#25602E"/>
<path d="M9.13931 18.5977C9.18383 18.3751 9.16157 18.1525 9.09479 17.9744C9.02801 17.7741 8.89446 17.596 8.7609 17.4402C8.62734 17.2844 8.44927 17.1508 8.27119 17.0173C8.09312 16.8837 7.91504 16.7502 7.73697 16.6166C7.9373 16.7056 8.13764 16.7947 8.33797 16.9282C8.53831 17.0395 8.69412 17.1954 8.84994 17.3512C9.00575 17.5292 9.13931 17.7073 9.18383 17.9522C9.27286 18.1525 9.25061 18.3974 9.13931 18.5977Z" fill="#25602E"/>
<path d="M13.0792 28.7257C12.9011 28.5253 12.6785 28.414 12.4337 28.3695C12.1888 28.325 11.944 28.3695 11.6991 28.414C11.2094 28.5253 10.742 28.7257 10.2745 28.926C10.6975 28.6366 11.1649 28.3918 11.6769 28.2582C11.9217 28.2137 12.2111 28.1692 12.4782 28.236C12.7231 28.325 12.9679 28.5031 13.0792 28.7257Z" fill="#25602E"/>
<path d="M22.762 7.71288C22.8065 8.04677 22.8288 8.38066 22.9178 8.67003C22.9623 8.82585 23.0291 8.9594 23.1181 9.09296C23.2072 9.22652 23.3407 9.31555 23.4966 9.38233C23.3185 9.38233 23.1627 9.29329 23.0291 9.182C22.8956 9.04844 22.8288 8.89263 22.762 8.73681C22.7175 8.55874 22.6952 8.40292 22.6952 8.22485C22.6952 8.02451 22.7175 7.8687 22.762 7.71288Z" fill="#25602E"/>
<path d="M20.3802 8.69228C20.5361 8.69228 20.6919 8.67002 20.8254 8.60324C20.959 8.53647 21.0703 8.42517 21.1816 8.31387C21.3819 8.09128 21.5377 7.80191 21.7381 7.5348C21.6935 7.69061 21.649 7.84643 21.5823 8.00224C21.5155 8.15806 21.4264 8.29161 21.3151 8.42517C21.2038 8.55873 21.0703 8.67002 20.8922 8.71454C20.7141 8.75906 20.5361 8.75906 20.3802 8.69228Z" fill="#25602E"/>
<path d="M31.6435 15.2811C31.4209 15.5704 31.1983 15.8153 31.0202 16.1269C30.9312 16.2827 30.8644 16.4385 30.8421 16.5944C30.8199 16.7502 30.8421 16.9282 30.9089 17.0841C30.7754 16.9505 30.7086 16.7724 30.7308 16.5721C30.7308 16.3718 30.7976 16.1937 30.8867 16.0379C30.9757 15.8821 31.087 15.7262 31.2205 15.6149C31.3541 15.4814 31.4877 15.3701 31.6435 15.2811Z" fill="#25602E"/>
<path d="M29.1505 14.4352C29.284 14.5687 29.4398 14.6578 29.6179 14.7023C29.796 14.7468 29.974 14.7246 30.1521 14.7023C30.5083 14.6578 30.8644 14.5242 31.2206 14.4129C30.9089 14.6355 30.5528 14.7913 30.1744 14.8581C29.974 14.8804 29.7737 14.8804 29.5956 14.8136C29.3953 14.7468 29.2395 14.6133 29.1505 14.4352Z" fill="#25602E"/>
<path d="M14.5483 31.9533C14.7041 31.5304 14.9045 31.1519 14.9935 30.729C15.038 30.5287 15.0825 30.3061 15.0603 30.1058C15.038 29.9054 14.949 29.7051 14.7709 29.5493C14.9712 29.6383 15.1271 29.8609 15.1716 30.0835C15.2161 30.3061 15.1938 30.551 15.1271 30.7735C15.0158 31.2187 14.8154 31.5971 14.5483 31.9533Z" fill="#25602E"/>
<path d="M17.3975 31.3523C17.2195 31.2632 17.0191 31.241 16.8188 31.2855C16.6407 31.33 16.4626 31.419 16.2846 31.5303C15.9507 31.7529 15.6613 32.0423 15.3497 32.3094C15.5723 31.9533 15.8394 31.6416 16.1955 31.3968C16.3736 31.2855 16.5739 31.1742 16.7965 31.1519C17.0191 31.1297 17.2417 31.1964 17.3975 31.3523Z" fill="#25602E"/>
<path d="M26.6129 31.2632C26.3235 30.8403 26.0341 30.4174 25.7003 30.039C25.5222 29.8609 25.3441 29.6828 25.1215 29.5715C24.8989 29.4602 24.6541 29.4157 24.4092 29.5048C24.5205 29.438 24.6541 29.3935 24.7876 29.3935C24.8544 29.3935 24.9212 29.3935 24.988 29.4157C25.0547 29.438 25.1215 29.4602 25.1883 29.4825C25.4331 29.5938 25.6335 29.7719 25.8115 29.9722C26.1677 30.3284 26.4125 30.7958 26.6129 31.2632Z" fill="#25602E"/>
<path d="M27.3252 28.0801C27.1248 28.2137 26.9913 28.4363 26.9468 28.6589C26.9022 28.8815 26.9245 29.1263 26.9468 29.3712C27.0135 29.8386 27.1694 30.3061 27.3029 30.7958C27.0581 30.3729 26.88 29.9054 26.7909 29.3934C26.7464 29.1486 26.7464 28.8815 26.8132 28.6366C26.9022 28.3695 27.1026 28.1469 27.3252 28.0801Z" fill="#25602E"/>
<path d="M19.9128 33.1775C19.846 32.9772 19.757 32.7769 19.6902 32.5765C19.6012 32.3762 19.5344 32.1981 19.4231 32.02C19.3118 31.842 19.1783 31.6861 19.0224 31.5749C18.8666 31.4636 18.6663 31.3745 18.4437 31.3523C18.644 31.3077 18.8889 31.3523 19.067 31.4636C19.2673 31.5749 19.4008 31.7529 19.5344 31.931C19.757 32.3094 19.8683 32.7546 19.9128 33.1775Z" fill="#25602E"/>
<path d="M22.6062 31.2187C22.4059 31.2632 22.2055 31.33 22.0497 31.4636C21.8939 31.5971 21.7826 31.7529 21.6936 31.931C21.6045 32.1091 21.5155 32.3094 21.4487 32.4875C21.3819 32.6878 21.3152 32.8882 21.2484 33.0885C21.2484 32.8882 21.2706 32.6656 21.3152 32.4652C21.3597 32.2649 21.4265 32.0646 21.5378 31.8642C21.649 31.6639 21.7826 31.4858 21.9607 31.3745C22.161 31.241 22.4059 31.1965 22.6062 31.2187Z" fill="#25602E"/>
<path d="M29.9963 28.0579C29.7292 28.0802 29.4843 28.0801 29.2617 28.1247C29.1504 28.1469 29.0391 28.1914 28.9279 28.2582C28.8166 28.325 28.7275 28.414 28.6607 28.5031C28.683 28.3695 28.7498 28.2582 28.8611 28.1692C28.9724 28.0802 29.0837 28.0134 29.2172 27.9911C29.3508 27.9689 29.4843 27.9466 29.6179 27.9689C29.7514 27.9689 29.885 28.0134 29.9963 28.0579Z" fill="#25602E"/>
<path d="M30.0186 25.6316C29.974 25.7652 29.974 25.921 29.9963 26.0323C30.0186 26.1658 30.0631 26.2771 30.1521 26.4107C30.2857 26.6555 30.486 26.8559 30.6641 27.0785C30.5305 27.0117 30.4192 26.9227 30.3079 26.8336C30.1966 26.7446 30.1076 26.6333 30.0186 26.4997C29.9518 26.3662 29.885 26.2104 29.885 26.0768C29.885 25.8987 29.9295 25.7429 30.0186 25.6316Z" fill="#25602E"/>
<path d="M10.6974 10.8069C11.0091 10.9405 11.3207 11.1185 11.6323 11.2076C11.7882 11.2521 11.944 11.2744 12.122 11.2744C12.2779 11.2521 12.4337 11.2076 12.5895 11.0963C12.5005 11.2521 12.3224 11.3411 12.1443 11.3857C11.9662 11.4302 11.7659 11.4079 11.6101 11.3411C11.432 11.2966 11.2762 11.2076 11.1204 11.1185C10.9646 11.0295 10.831 10.9182 10.6974 10.8069Z" fill="#25602E"/>
<path d="M10.3858 13.389C10.4749 13.2554 10.5194 13.0996 10.5416 12.9661C10.5639 12.8103 10.5416 12.6767 10.4971 12.5209C10.4081 12.2315 10.2523 11.9421 10.1187 11.6528C10.23 11.7641 10.3413 11.8976 10.4303 12.0312C10.5194 12.1647 10.5862 12.3206 10.6307 12.4764C10.6752 12.6322 10.6975 12.8103 10.6529 12.9883C10.6084 13.1441 10.5194 13.2777 10.3858 13.389Z" fill="#25602E"/>
<path d="M7.22501 22.5598C7.60341 22.404 8.00408 22.2705 8.36023 22.0924C8.53831 22.0034 8.69412 21.8921 8.82768 21.7362C8.96123 21.5804 9.02801 21.4024 9.02801 21.1798C9.09479 21.3801 9.05027 21.625 8.91672 21.803C8.78316 21.9811 8.60509 22.1147 8.42701 22.226C8.07086 22.4263 7.64793 22.5153 7.22501 22.5598Z" fill="#25602E"/>
<path d="M9.42867 24.3183C9.38415 24.118 9.25059 23.9622 9.09478 23.8509C8.93896 23.7396 8.76089 23.6728 8.56055 23.6283C8.18215 23.517 7.78148 23.4947 7.35855 23.4502C7.75922 23.3834 8.18215 23.3834 8.58281 23.4947C8.78315 23.5615 8.98348 23.6283 9.1393 23.7841C9.33963 23.8954 9.45093 24.118 9.42867 24.3183Z" fill="#25602E"/>
<path d="M9.45093 28.0802C9.80708 27.6795 10.1855 27.2788 10.4526 26.8336C10.5862 26.611 10.6975 26.3662 10.7642 26.1213C10.8087 25.8765 10.7642 25.6094 10.6307 25.3645C10.8087 25.5649 10.92 25.8542 10.8755 26.1436C10.8533 26.433 10.7197 26.6778 10.5862 26.9227C10.2968 27.3679 9.89612 27.7463 9.45093 28.0802Z" fill="#25602E"/>
<path d="M21.471 40.1002C22.072 40.2783 22.7175 39.2543 22.072 39.0762C21.4265 38.8982 20.781 39.8999 21.471 40.1002Z" fill="#1D957F"/>
</g>
<path d="M54.528 26.8413C52.812 26.8413 51.468 26.4273 50.496 25.5993C49.536 24.7593 49.026 23.5473 48.966 21.9633C48.954 21.6393 48.948 21.1113 48.948 20.3793C48.948 19.6353 48.954 19.0953 48.966 18.7593C49.026 17.1993 49.548 15.9993 50.532 15.1593C51.516 14.3073 52.848 13.8813 54.528 13.8813C55.584 13.8813 56.532 14.0613 57.372 14.4213C58.212 14.7693 58.872 15.2733 59.352 15.9333C59.844 16.5813 60.096 17.3433 60.108 18.2193V18.2553C60.108 18.3513 60.066 18.4353 59.982 18.5073C59.91 18.5673 59.826 18.5973 59.73 18.5973H57.3C57.144 18.5973 57.024 18.5673 56.94 18.5073C56.856 18.4353 56.784 18.3093 56.724 18.1293C56.556 17.5173 56.292 17.0913 55.932 16.8513C55.572 16.5993 55.098 16.4733 54.51 16.4733C53.094 16.4733 52.362 17.2653 52.314 18.8493C52.302 19.1733 52.296 19.6713 52.296 20.3433C52.296 21.0153 52.302 21.5253 52.314 21.8733C52.362 23.4573 53.094 24.2493 54.51 24.2493C55.098 24.2493 55.578 24.1233 55.95 23.8713C56.322 23.6073 56.58 23.1813 56.724 22.5933C56.772 22.4133 56.838 22.2933 56.922 22.2333C57.006 22.1613 57.132 22.1253 57.3 22.1253H59.73C59.838 22.1253 59.928 22.1613 60 22.2333C60.084 22.3053 60.12 22.3953 60.108 22.5033C60.096 23.3793 59.844 24.1473 59.352 24.8073C58.872 25.4553 58.212 25.9593 57.372 26.3193C56.532 26.6673 55.584 26.8413 54.528 26.8413ZM66.2307 26.8413C64.7427 26.8413 63.5967 26.4873 62.7927 25.7793C61.9887 25.0713 61.5507 24.0753 61.4787 22.7913C61.4667 22.6353 61.4607 22.3653 61.4607 21.9813C61.4607 21.5973 61.4667 21.3273 61.4787 21.1713C61.5507 19.8993 62.0007 18.9093 62.8287 18.2013C63.6567 17.4813 64.7907 17.1213 66.2307 17.1213C67.6827 17.1213 68.8227 17.4813 69.6507 18.2013C70.4787 18.9093 70.9287 19.8993 71.0007 21.1713C71.0127 21.3273 71.0187 21.5973 71.0187 21.9813C71.0187 22.3653 71.0127 22.6353 71.0007 22.7913C70.9287 24.0753 70.4907 25.0713 69.6867 25.7793C68.8827 26.4873 67.7307 26.8413 66.2307 26.8413ZM66.2307 24.6453C66.7587 24.6453 67.1487 24.4893 67.4007 24.1773C67.6527 23.8533 67.7967 23.3613 67.8327 22.7013C67.8447 22.5813 67.8507 22.3413 67.8507 21.9813C67.8507 21.6213 67.8447 21.3813 67.8327 21.2613C67.7967 20.6133 67.6467 20.1273 67.3827 19.8033C67.1307 19.4793 66.7467 19.3173 66.2307 19.3173C65.2347 19.3173 64.7067 19.9653 64.6467 21.2613L64.6287 21.9813L64.6467 22.7013C64.6707 23.3613 64.8087 23.8533 65.0607 24.1773C65.3247 24.4893 65.7147 24.6453 66.2307 24.6453ZM73.2566 26.6613C73.1246 26.6613 73.0166 26.6193 72.9326 26.5353C72.8486 26.4513 72.8066 26.3433 72.8066 26.2113V17.7513C72.8066 17.6193 72.8486 17.5113 72.9326 17.4273C73.0166 17.3433 73.1246 17.3013 73.2566 17.3013H75.3266C75.4586 17.3013 75.5666 17.3493 75.6506 17.4453C75.7466 17.5293 75.7946 17.6313 75.7946 17.7513V18.4713C76.4546 17.6913 77.3426 17.3013 78.4586 17.3013H79.2506C79.3826 17.3013 79.4906 17.3433 79.5746 17.4273C79.6586 17.5113 79.7006 17.6193 79.7006 17.7513V19.6053C79.7006 19.7253 79.6586 19.8333 79.5746 19.9293C79.4906 20.0133 79.3826 20.0553 79.2506 20.0553H77.5046C77.0126 20.0553 76.6286 20.1933 76.3526 20.4693C76.0886 20.7333 75.9566 21.1113 75.9566 21.6033V26.2113C75.9566 26.3433 75.9086 26.4513 75.8126 26.5353C75.7286 26.6193 75.6206 26.6613 75.4886 26.6613H73.2566ZM85.3205 26.8413C83.8325 26.8413 82.6865 26.4873 81.8825 25.7793C81.0785 25.0713 80.6405 24.0753 80.5685 22.7913C80.5565 22.6353 80.5505 22.3653 80.5505 21.9813C80.5505 21.5973 80.5565 21.3273 80.5685 21.1713C80.6405 19.8993 81.0905 18.9093 81.9185 18.2013C82.7465 17.4813 83.8805 17.1213 85.3205 17.1213C86.7725 17.1213 87.9125 17.4813 88.7405 18.2013C89.5685 18.9093 90.0185 19.8993 90.0905 21.1713C90.1025 21.3273 90.1085 21.5973 90.1085 21.9813C90.1085 22.3653 90.1025 22.6353 90.0905 22.7913C90.0185 24.0753 89.5805 25.0713 88.7765 25.7793C87.9725 26.4873 86.8205 26.8413 85.3205 26.8413ZM85.3205 24.6453C85.8485 24.6453 86.2385 24.4893 86.4905 24.1773C86.7425 23.8533 86.8865 23.3613 86.9225 22.7013C86.9345 22.5813 86.9405 22.3413 86.9405 21.9813C86.9405 21.6213 86.9345 21.3813 86.9225 21.2613C86.8865 20.6133 86.7365 20.1273 86.4725 19.8033C86.2205 19.4793 85.8365 19.3173 85.3205 19.3173C84.3245 19.3173 83.7965 19.9653 83.7365 21.2613L83.7185 21.9813L83.7365 22.7013C83.7605 23.3613 83.8985 23.8533 84.1505 24.1773C84.4145 24.4893 84.8045 24.6453 85.3205 24.6453ZM92.3464 26.6613C92.2144 26.6613 92.1064 26.6193 92.0224 26.5353C91.9384 26.4513 91.8964 26.3433 91.8964 26.2113V17.7513C91.8964 17.6193 91.9384 17.5113 92.0224 17.4273C92.1064 17.3433 92.2144 17.3013 92.3464 17.3013H94.4164C94.5484 17.3013 94.6564 17.3433 94.7404 17.4273C94.8364 17.5113 94.8844 17.6193 94.8844 17.7513V18.4353C95.2084 18.0393 95.6224 17.7213 96.1264 17.4813C96.6424 17.2413 97.2244 17.1213 97.8724 17.1213C98.9284 17.1213 99.7864 17.4813 100.446 18.2013C101.106 18.9093 101.436 19.9053 101.436 21.1893V26.2113C101.436 26.3313 101.394 26.4393 101.31 26.5353C101.226 26.6193 101.118 26.6613 100.986 26.6613H98.7184C98.5984 26.6613 98.4904 26.6193 98.3944 26.5353C98.3104 26.4393 98.2684 26.3313 98.2684 26.2113V21.2973C98.2684 20.7333 98.1304 20.3013 97.8544 20.0013C97.5784 19.6893 97.1824 19.5333 96.6664 19.5333C96.1624 19.5333 95.7664 19.6893 95.4784 20.0013C95.1904 20.3013 95.0464 20.7333 95.0464 21.2973V26.2113C95.0464 26.3313 95.0044 26.4393 94.9204 26.5353C94.8364 26.6193 94.7284 26.6613 94.5964 26.6613H92.3464Z" fill="#1D957F"/>
<path d="M106.271 26.8413C105.635 26.8413 105.053 26.7213 104.525 26.4813C104.009 26.2293 103.601 25.8933 103.301 25.4733C103.013 25.0413 102.869 24.5673 102.869 24.0513C102.869 23.2233 103.205 22.5573 103.877 22.0533C104.561 21.5493 105.497 21.2013 106.685 21.0093L108.935 20.6673V20.4153C108.935 19.9593 108.839 19.6233 108.647 19.4073C108.455 19.1913 108.131 19.0833 107.675 19.0833C107.399 19.0833 107.171 19.1313 106.991 19.2273C106.811 19.3233 106.625 19.4553 106.433 19.6233C106.265 19.7673 106.139 19.8633 106.055 19.9113C106.019 20.0073 105.953 20.0553 105.857 20.0553H103.895C103.775 20.0553 103.673 20.0193 103.589 19.9473C103.517 19.8633 103.487 19.7673 103.499 19.6593C103.511 19.3353 103.667 18.9753 103.967 18.5793C104.279 18.1833 104.747 17.8413 105.371 17.5533C106.007 17.2653 106.787 17.1213 107.711 17.1213C109.187 17.1213 110.279 17.4513 110.987 18.1113C111.695 18.7593 112.049 19.6353 112.049 20.7393V26.2113C112.049 26.3313 112.007 26.4393 111.923 26.5353C111.839 26.6193 111.731 26.6613 111.599 26.6613H109.511C109.391 26.6613 109.283 26.6193 109.187 26.5353C109.103 26.4393 109.061 26.3313 109.061 26.2113V25.5813C108.797 25.9533 108.425 26.2593 107.945 26.4993C107.477 26.7273 106.919 26.8413 106.271 26.8413ZM107.117 24.7893C107.669 24.7893 108.113 24.6093 108.449 24.2493C108.797 23.8893 108.971 23.3613 108.971 22.6653V22.4133L107.441 22.6833C106.361 22.8753 105.821 23.2533 105.821 23.8173C105.821 24.1173 105.947 24.3573 106.199 24.5373C106.451 24.7053 106.757 24.7893 107.117 24.7893ZM114.53 30.0813C114.41 30.0813 114.302 30.0393 114.206 29.9553C114.122 29.8713 114.08 29.7633 114.08 29.6313V17.7513C114.08 17.6193 114.122 17.5113 114.206 17.4273C114.302 17.3433 114.41 17.3013 114.53 17.3013H116.564C116.696 17.3013 116.804 17.3433 116.888 17.4273C116.972 17.5113 117.014 17.6193 117.014 17.7513V18.3993C117.662 17.5473 118.592 17.1213 119.804 17.1213C120.98 17.1213 121.898 17.4873 122.558 18.2193C123.218 18.9513 123.578 19.9833 123.638 21.3153C123.65 21.4713 123.656 21.6933 123.656 21.9813C123.656 22.2693 123.65 22.4913 123.638 22.6473C123.59 23.9433 123.23 24.9693 122.558 25.7253C121.886 26.4693 120.968 26.8413 119.804 26.8413C118.628 26.8413 117.752 26.4393 117.176 25.6353V29.6313C117.176 29.7633 117.134 29.8713 117.05 29.9553C116.966 30.0393 116.858 30.0813 116.726 30.0813H114.53ZM118.832 24.4293C119.396 24.4293 119.798 24.2613 120.038 23.9253C120.29 23.5893 120.434 23.1273 120.47 22.5393C120.494 22.2993 120.506 22.1133 120.506 21.9813C120.506 21.8493 120.494 21.6633 120.47 21.4233C120.434 20.8353 120.29 20.3733 120.038 20.0373C119.798 19.7013 119.396 19.5333 118.832 19.5333C118.28 19.5333 117.872 19.7073 117.608 20.0553C117.356 20.3913 117.212 20.8293 117.176 21.3693L117.158 22.0353L117.176 22.7193C117.2 23.2113 117.35 23.6193 117.626 23.9433C117.902 24.2673 118.304 24.4293 118.832 24.4293ZM125.886 30.0813C125.766 30.0813 125.658 30.0393 125.562 29.9553C125.478 29.8713 125.436 29.7633 125.436 29.6313V17.7513C125.436 17.6193 125.478 17.5113 125.562 17.4273C125.658 17.3433 125.766 17.3013 125.886 17.3013H127.92C128.052 17.3013 128.16 17.3433 128.244 17.4273C128.328 17.5113 128.37 17.6193 128.37 17.7513V18.3993C129.018 17.5473 129.948 17.1213 131.16 17.1213C132.336 17.1213 133.254 17.4873 133.914 18.2193C134.574 18.9513 134.934 19.9833 134.994 21.3153C135.006 21.4713 135.012 21.6933 135.012 21.9813C135.012 22.2693 135.006 22.4913 134.994 22.6473C134.946 23.9433 134.586 24.9693 133.914 25.7253C133.242 26.4693 132.324 26.8413 131.16 26.8413C129.984 26.8413 129.108 26.4393 128.532 25.6353V29.6313C128.532 29.7633 128.49 29.8713 128.406 29.9553C128.322 30.0393 128.214 30.0813 128.082 30.0813H125.886ZM130.188 24.4293C130.752 24.4293 131.154 24.2613 131.394 23.9253C131.646 23.5893 131.79 23.1273 131.826 22.5393C131.85 22.2993 131.862 22.1133 131.862 21.9813C131.862 21.8493 131.85 21.6633 131.826 21.4233C131.79 20.8353 131.646 20.3733 131.394 20.0373C131.154 19.7013 130.752 19.5333 130.188 19.5333C129.636 19.5333 129.228 19.7073 128.964 20.0553C128.712 20.3913 128.568 20.8293 128.532 21.3693L128.514 22.0353L128.532 22.7193C128.556 23.2113 128.706 23.6193 128.982 23.9433C129.258 24.2673 129.66 24.4293 130.188 24.4293Z" fill="black"/>
<defs>
<clipPath id="clip0">
<rect width="39.2877" height="40" fill="white" transform="translate(0.814331 0.589874)"/>
</clipPath>
</defs>
</svg>