<svg width="40" height="40" viewBox="0 0 40 40" fill="none" xmlns="http://www.w3.org/2000/svg">
    <g clip-path="url(#clip0)">
        <path d="M8.16917 26.6667C11.3523 31.675 18.2972 33.9009 23.8175 31.6973C29.3378 29.4936 32.8102 23.0829 31.6528 17.251C30.7846 12.8436 27.4457 9.01503 23.2165 7.47914C18.6533 5.80969 12.2204 6.58877 9.41569 10.8626C6.25487 15.6261 4.91931 21.5693 8.16917 26.6667Z" fill="#1D957F"/>
        <path d="M31.6527 17.2732C31.0295 14.1347 29.1597 11.2855 26.5999 9.34891C27.0896 10.3506 27.468 11.419 27.6906 12.5097C28.8481 18.3417 25.3756 24.7524 19.8553 26.956C15.7819 28.581 10.9516 27.8019 7.41235 25.2643C7.63494 25.754 7.90206 26.2215 8.19143 26.6889C11.3745 31.6973 18.3194 33.9232 23.8397 31.7195C29.3155 29.4936 32.788 23.1052 31.6527 17.2732Z" fill="#25602E"/>
        <path d="M23.6839 9.8386C25.6873 11.3522 29.4936 4.11795 29.4936 4.11795L30.8514 5.14188C30.8514 5.14188 24.975 10.818 27.0006 12.3316" fill="#1D957F"/>
        <path d="M31.6527 5.52028C32.0757 3.67276 28.8703 1.89201 28.4474 3.91761C28.0467 5.87643 31.163 7.65718 31.6527 5.52028Z" fill="#1D957F"/>
        <path d="M30.1169 3.606C29.7607 3.09404 28.6032 3.47245 29.0039 4.02893C29.4046 4.56315 30.5175 4.18475 30.1169 3.606Z" fill="#25602E"/>
        <path d="M31.5192 4.42959C31.5192 4.54089 31.4969 4.65219 31.4747 4.76348C31.074 6.45519 29.0484 5.67612 28.4251 4.3183C28.4697 6.09904 31.2076 7.52364 31.6527 5.5203C31.7418 5.14189 31.675 4.76348 31.5192 4.42959Z" fill="#25602E"/>
        <path d="M30.1614 18.8536C29.9388 21.3689 38.0857 20.7679 38.0857 20.7679L37.9299 22.4596C37.9299 22.4596 30.0056 20.4786 29.783 22.9939" fill="#25602E"/>
        <path d="M38.0412 23.35C39.8219 22.749 39.6661 19.0762 37.7073 19.7885C35.8375 20.4786 35.9711 24.0623 38.0412 23.35Z" fill="#25602E"/>
        <path d="M38.8425 21.0128C39.0874 20.434 38.1525 19.6772 37.8854 20.3005C37.6628 20.9237 38.5531 21.6806 38.8425 21.0128Z" fill="#1D957F"/>
        <path d="M38.887 22.66C38.798 22.7268 38.6867 22.7713 38.5754 22.7935C36.9282 23.35 36.5053 21.2131 37.3511 19.9666C35.8598 20.946 36.1046 24.0178 38.0412 23.35C38.3973 23.2165 38.6867 22.9716 38.887 22.66Z" fill="#1D957F"/>
        <path d="M26.5109 27.4902C24.7301 28.3361 28.4029 33.5893 28.4029 33.5893L27.2009 34.168C27.2009 34.168 25.3534 28.0467 23.5726 28.9148" fill="#25602E"/>
        <path d="M26.6667 34.591C27.8019 35.5481 30.1836 33.9677 28.9371 32.9438C27.7128 31.9421 25.3534 33.478 26.6667 34.591Z" fill="#25602E"/>
        <path d="M28.5587 34.1903C29.0484 34.1236 29.182 33.1887 28.6477 33.2777C28.1358 33.3445 28.0022 34.2571 28.5587 34.1903Z" fill="#1D957F"/>
        <path d="M27.468 34.8803C27.4012 34.8358 27.3122 34.7913 27.2454 34.7245C26.1992 33.8564 27.468 32.6989 28.6477 32.7657C27.379 32.1424 25.4201 33.5448 26.6444 34.591C26.8893 34.769 27.1786 34.8581 27.468 34.8803Z" fill="#1D957F"/>
        <path d="M21.7919 30.6288C19.2766 30.6956 20.7902 38.7312 20.7902 38.7312L19.0985 38.7758C19.0985 38.7758 20.1447 30.6734 17.6294 30.7624" fill="#25602E"/>
        <path d="M18.2304 38.9761C19.054 40.6901 22.6823 40.0891 21.7251 38.2415C20.8347 36.4608 17.2955 36.995 18.2304 38.9761Z" fill="#25602E"/>
        <path d="M19.0317 39.7551C18.9649 39.6661 18.8982 39.5771 18.8536 39.4658C18.0968 37.9076 20.1892 37.2176 21.5248 37.9076C20.3673 36.5276 17.3623 37.1286 18.2304 38.9761C18.4085 39.3322 18.6978 39.5771 19.0317 39.7551Z" fill="#1D957F"/>
        <path d="M13.7117 9.50474C16.049 8.54759 11.7529 1.58043 11.7529 1.58043L13.3111 0.934906C13.3111 0.934906 15.2254 8.88148 17.5403 7.90207" fill="#1D957F"/>
        <path d="M14.0679 0.445181C12.6878 -0.868119 9.527 0.979405 11.0406 2.38174C12.532 3.73956 15.6483 1.95881 14.0679 0.445181Z" fill="#1D957F"/>
        <path d="M11.6194 0.801331C10.9961 0.84585 10.7512 2.02559 11.419 1.95882C12.0868 1.9143 12.3317 0.756812 11.6194 0.801331Z" fill="#25602E"/>
        <path d="M13.044 0C13.133 0.066778 13.222 0.133556 13.3111 0.222593C14.5798 1.4246 12.8659 2.78242 11.3745 2.6266C12.9327 3.49471 15.537 1.86978 14.0679 0.445187C13.7785 0.178075 13.4224 0.0445187 13.044 0Z" fill="#25602E"/>
        <path d="M8.32499 18.0078C9.17084 15.6261 1.13523 14.2015 1.13523 14.2015L1.69171 12.5988C1.69171 12.5988 8.90373 16.4719 9.70507 14.0679" fill="#1D957F"/>
        <path d="M1.80301 11.7084C-0.0890363 11.8642 -0.823594 15.4702 1.24652 15.2476C3.2276 15.0473 3.98442 11.5303 1.80301 11.7084Z" fill="#1D957F"/>
        <path d="M0.445189 13.7785C0.0667801 14.2682 0.779078 15.2476 1.17975 14.6911C1.58041 14.1569 0.890375 13.1998 0.445189 13.7785Z" fill="#25602E"/>
        <path d="M0.801338 12.1759C0.912635 12.1536 1.02393 12.1313 1.13523 12.1091C2.87145 11.9755 2.76016 14.1347 1.64719 15.1586C3.3389 14.5799 3.85086 11.5526 1.82527 11.7084C1.40234 11.7529 1.06845 11.931 0.801338 12.1759Z" fill="#25602E"/>
        <path d="M12.2649 28.1358C10.7958 26.0879 5.03061 31.8754 5.03061 31.8754L4.02894 30.4953C4.02894 30.4953 11.3077 26.778 9.81636 24.7524" fill="#25602E"/>
        <path d="M3.38342 29.9165C2.42627 31.5637 4.96383 34.2125 5.9655 32.3873C6.92265 30.6288 4.47413 28.0245 3.38342 29.9165Z" fill="#25602E"/>
        <path d="M4.29605 32.2092C4.49639 32.8102 5.69839 32.7657 5.4758 32.1202C5.2532 31.4969 4.07346 31.5192 4.29605 32.2092Z" fill="#1D957F"/>
        <path d="M3.18308 31.0072C3.20534 30.8959 3.24986 30.8069 3.31664 30.6956C4.18475 29.182 5.92098 30.5175 6.09905 32.0311C6.58876 30.3172 4.38509 28.158 3.36116 29.9165C3.18308 30.2504 3.13856 30.6288 3.18308 31.0072Z" fill="#1D957F"/>
        <path d="M19.5659 8.10238C21.4357 8.5253 21.7919 2.29269 21.7919 2.29269L23.0607 2.55981C23.0607 2.55981 20.7902 8.36949 22.66 8.77016" fill="#1D957F"/>
        <path d="M23.7507 2.58207C23.4613 1.15747 20.6789 0.93488 21.0128 2.47077C21.3689 3.98441 24.0846 4.22926 23.7507 2.58207Z" fill="#1D957F"/>
        <path d="M22.059 1.73622C21.6583 1.49137 20.9683 2.13689 21.4357 2.38174C21.8809 2.6266 22.5487 2.02559 22.059 1.73622Z" fill="#25602E"/>
        <path d="M23.3055 1.86978C23.35 1.93656 23.3723 2.0256 23.3946 2.11463C23.6617 3.40567 21.9922 3.51697 21.1241 2.76015C21.7251 3.98442 24.0623 4.09571 23.7507 2.58208C23.7062 2.29271 23.5281 2.04786 23.3055 1.86978Z" fill="#25602E"/>
        <path d="M28.3361 13.8453C29.3823 15.4479 33.99 11.2409 33.99 11.2409L34.7023 12.3316C34.7023 12.3316 29.0262 14.9137 30.0946 16.5164" fill="#25602E"/>
        <path d="M35.192 12.7991C35.9711 11.5748 34.1235 9.46019 33.2999 10.818C32.4986 12.1313 34.2794 14.2014 35.192 12.7991Z" fill="#25602E"/>
        <path d="M34.5687 11.0184C34.4352 10.5509 33.5225 10.5509 33.6561 11.0406C33.8119 11.5303 34.7246 11.5526 34.5687 11.0184Z" fill="#1D957F"/>
        <path d="M35.37 11.9755C35.3478 12.0646 35.3033 12.1313 35.2588 12.1981C34.5465 13.3111 33.2777 12.2426 33.1886 11.0851C32.7657 12.3762 34.3684 14.0902 35.192 12.7769C35.3478 12.5543 35.3923 12.2649 35.37 11.9755Z" fill="#1D957F"/>
        <path d="M16.5832 30.7624C15.0028 29.6717 12.3539 35.3255 12.3539 35.3255L11.2855 34.591C11.2855 34.591 15.5593 30.0501 13.9566 28.9816" fill="#25602E"/>
        <path d="M10.6622 34.3239C10.3951 35.7485 12.9104 36.995 13.1553 35.4368C13.4001 33.9232 10.9516 32.6767 10.6622 34.3239Z" fill="#25602E"/>
        <path d="M11.9087 35.7262C12.1981 36.1046 13.0662 35.7707 12.7323 35.3701C12.4207 34.9694 11.5748 35.3033 11.9087 35.7262Z" fill="#1D957F"/>
        <path d="M10.7958 35.1474C10.7958 35.0584 10.7958 34.9694 10.818 34.9026C11.0629 33.5893 12.6433 34.1013 13.1553 35.1252C13.0662 33.7674 10.9293 32.788 10.64 34.3239C10.5954 34.6132 10.6622 34.9026 10.7958 35.1474Z" fill="#1D957F"/>
        <path d="M29.2042 25.0417C28.3806 26.7779 34.3684 28.5142 34.3684 28.5142L33.8119 29.6939C33.8119 29.6939 28.67 26.1769 27.8464 27.9132" fill="#25602E"/>
        <path d="M33.6561 30.3617C35.103 30.4062 35.9488 27.7351 34.3684 27.7129C32.8325 27.7129 31.9866 30.3172 33.6561 30.3617Z" fill="#25602E"/>
        <path d="M34.8581 28.8926C35.192 28.5365 34.7245 27.7574 34.3684 28.1358C34.0122 28.5142 34.4574 29.2933 34.8581 28.8926Z" fill="#1D957F"/>
        <path d="M34.4574 30.0723C34.3684 30.0946 34.2794 30.0946 34.2126 30.0946C32.877 30.0501 33.1441 28.4251 34.079 27.7351C32.7435 28.0467 32.1202 30.2949 33.6784 30.3394C33.9455 30.3617 34.2126 30.2504 34.4574 30.0723Z" fill="#1D957F"/>
        <path d="M9.57151 12.7991C10.9071 11.4191 5.78742 7.85756 5.78742 7.85756L6.6778 6.92267C6.6778 6.92267 10.4396 11.9088 11.7752 10.5064" fill="#1D957F"/>
        <path d="M7.05621 6.3439C5.69839 5.8542 4.02894 8.10239 5.54257 8.61435C6.98943 9.10406 8.61436 6.92264 7.05621 6.3439Z" fill="#1D957F"/>
        <path d="M5.45353 7.34557C5.03061 7.56817 5.20868 8.4808 5.67613 8.21369C6.09905 7.96883 5.94324 7.07846 5.45353 7.34557Z" fill="#25602E"/>
        <path d="M6.21035 6.34388C6.29939 6.34388 6.36617 6.36614 6.45521 6.41066C7.70173 6.85584 6.92265 8.34722 5.83195 8.68111C7.18977 8.81466 8.52533 6.8781 7.05621 6.34388C6.76684 6.23258 6.47747 6.25484 6.21035 6.34388Z" fill="#25602E"/>
        <path d="M8.61436 23.7284C8.36951 21.8141 2.38175 23.5726 2.38175 23.5726L2.22593 22.2816C2.22593 22.2816 8.45854 22.4819 8.21369 20.5676" fill="#1D957F"/>
        <path d="M2.0256 21.6583C0.779075 22.4151 1.51363 25.1085 2.84919 24.2627C4.14023 23.4391 3.45019 20.7902 2.0256 21.6583Z" fill="#1D957F"/>
        <path d="M1.78075 23.5281C1.69171 23.9955 2.5153 24.4185 2.60434 23.9065C2.69338 23.3945 1.89204 22.9939 1.78075 23.5281Z" fill="#25602E"/>
        <path d="M1.49138 22.3038C1.55815 22.237 1.62493 22.1925 1.69171 22.148C2.82694 21.458 3.49472 22.9938 3.07179 24.0623C4.02894 23.0829 3.3389 20.8347 2.00334 21.636C1.75849 21.8141 1.60267 22.0367 1.49138 22.3038Z" fill="#25602E"/>
        <path d="M11.3522 14.246C11.1074 14.2014 10.8625 14.1569 10.6177 14.246C10.3728 14.335 10.217 14.5576 10.128 14.8247C10.0612 15.0696 10.0612 15.3367 10.1057 15.5815C10.2838 16.5387 10.9961 17.4068 11.9087 17.7184C12.8659 18.0746 14.3127 17.4513 13.9343 16.227C13.645 15.2476 12.3094 14.4685 11.3522 14.246Z" fill="#25602E"/>
        <path d="M25.4647 19.6105C25.6205 19.3211 25.7318 18.9872 25.7095 18.6756C25.665 18.3417 25.4424 18.03 25.153 17.852C24.8637 17.6739 24.5075 17.5849 24.1736 17.5626C22.8603 17.4513 21.5248 18.0746 20.7902 19.1653C20.0111 20.3005 20.3228 22.3706 22.0145 22.2816C23.4168 22.2148 24.8637 20.7679 25.4647 19.6105Z" fill="#25602E"/>
        <path d="M12.1981 20.9683C11.8197 20.8792 11.4413 20.8124 11.0851 20.946C10.7067 21.0796 10.4396 21.4135 10.3061 21.7919C10.1725 22.1703 10.1725 22.5709 10.217 22.9716C10.4174 24.4852 11.4858 25.8431 12.8882 26.4218C14.3573 27.0228 16.6277 26.1547 16.1158 24.2404C15.6706 22.6377 13.6672 21.3689 12.1981 20.9683Z" fill="#25602E"/>
        <path d="M15.1808 18.8759C15.025 19.0095 14.8692 19.1653 14.8024 19.3434C14.7357 19.5437 14.8024 19.7885 14.9137 19.9666C15.025 20.1447 15.2031 20.2782 15.4034 20.3895C16.1157 20.7902 17.0506 20.768 17.7407 20.345C18.4752 19.8998 18.8314 18.6311 17.8297 18.2526C17.0061 17.9188 15.8041 18.3639 15.1808 18.8759Z" fill="#25602E"/>
        <path d="M17.7852 25.3756C17.8075 25.5537 17.8742 25.754 17.9855 25.8876C18.1191 26.0211 18.3194 26.0879 18.5197 26.0657C18.7201 26.0434 18.8982 25.9766 19.0762 25.8653C19.7218 25.4647 20.1224 24.7301 20.1002 23.9733C20.0779 23.1942 19.232 22.3484 18.4752 22.9494C17.852 23.4836 17.6739 24.6411 17.7852 25.3756Z" fill="#25602E"/>
        <path d="M16.3383 9.88315C15.8486 9.97218 15.3589 10.128 15.025 10.5287C14.6689 10.9293 14.5576 11.5526 14.6466 12.1313C14.7357 12.7101 14.9805 13.2666 15.2921 13.7563C16.4719 15.6483 18.542 16.8281 20.5231 16.739C22.5932 16.65 24.6633 14.1124 22.8826 11.8642C21.3912 10.039 18.2972 9.527 16.3383 9.88315Z" fill="#25602E"/>
        <path d="M9.54926 26.5109C10.217 26.8225 10.9293 27.0896 11.6416 27.2899L9.81637 24.7746C10.1948 25.2866 10.0167 25.8876 9.54926 26.5109Z" fill="#1D957F"/>
        <path d="M27.1119 9.77185C26.956 10.217 26.7557 10.64 26.6889 11.0852C26.6444 11.3077 26.6444 11.5303 26.6667 11.7529C26.6889 11.8642 26.7334 11.9755 26.778 12.0646C26.8225 12.1536 26.9115 12.2426 27.0006 12.3317C26.8893 12.2649 26.8002 12.1981 26.7334 12.1091C26.6667 12.02 26.5999 11.9087 26.5554 11.7752C26.5109 11.6639 26.5108 11.5303 26.5108 11.419C26.5108 11.3077 26.5108 11.1742 26.5331 11.0629C26.5776 10.818 26.6444 10.5954 26.7557 10.3951C26.867 10.1725 26.9783 9.97218 27.1119 9.77185Z" fill="#25602E"/>
        <path d="M23.6839 9.83864C23.8843 9.94994 24.1068 10.0167 24.3294 9.99446C24.552 9.9722 24.7746 9.90542 24.975 9.79412C25.1753 9.68282 25.3756 9.57153 25.5537 9.43797C25.7318 9.28216 25.9098 9.1486 26.1102 9.01505C25.9544 9.19312 25.7986 9.37119 25.6205 9.52701C25.4424 9.68282 25.2421 9.81638 25.0417 9.92768C24.8191 10.039 24.5965 10.1058 24.3517 10.1058C24.2181 10.1058 24.1068 10.0835 23.9955 10.039C23.862 9.99445 23.773 9.92768 23.6839 9.83864Z" fill="#25602E"/>
        <path d="M31.6527 21.7696C31.4524 21.8141 31.2521 21.8809 31.074 21.9254C30.8737 21.9922 30.6956 22.0367 30.5175 22.1258C30.3394 22.2148 30.1836 22.3261 30.0501 22.4597C29.9165 22.5932 29.8275 22.7713 29.783 22.9716C29.7607 22.7713 29.8275 22.5487 29.961 22.3706C30.0946 22.1925 30.2727 22.059 30.4507 21.97C30.8292 21.8364 31.2521 21.7696 31.6527 21.7696Z" fill="#25602E"/>
        <path d="M30.1614 18.8536C30.1614 19.0762 30.2282 19.2543 30.3394 19.4324C30.4507 19.5882 30.6066 19.744 30.7624 19.8553C30.9182 19.9666 31.1185 20.0779 31.2966 20.1669C31.4747 20.256 31.675 20.345 31.8753 20.434C31.675 20.4118 31.4524 20.3673 31.2521 20.2782C31.0517 20.2115 30.8514 20.1224 30.6733 19.9889C30.4953 19.8553 30.3394 19.6995 30.2282 19.4992C30.1391 19.2988 30.1169 19.054 30.1614 18.8536Z" fill="#25602E"/>
        <path d="M15.6928 6.96716C15.9599 7.23427 16.2048 7.52365 16.5164 7.72398C16.6722 7.83528 16.828 7.90205 17.0061 7.94657C17.1842 7.99109 17.3623 7.99109 17.5403 7.92431C17.3845 8.03561 17.1842 8.08013 16.9839 8.05787C16.7835 8.03561 16.6055 7.94657 16.4274 7.85753C16.1157 7.61268 15.8709 7.30105 15.6928 6.96716Z" fill="#25602E"/>
        <path d="M13.7117 9.50473C13.8898 9.39343 14.0456 9.25988 14.1347 9.0818C14.2237 8.90373 14.2905 8.72565 14.3127 8.52532C14.335 8.32498 14.335 8.12465 14.335 7.92432C14.335 7.72398 14.3127 7.52365 14.3127 7.30106C14.4463 7.70172 14.5131 8.10239 14.4686 8.54758C14.4463 8.74791 14.3795 8.9705 14.246 9.14858C14.1124 9.32665 13.9121 9.46021 13.7117 9.50473Z" fill="#25602E"/>
        <path d="M7.36783 14.7802C7.59042 14.7802 7.81302 14.8025 8.03561 14.8025C8.2582 14.8025 8.4808 14.8025 8.68113 14.7579C8.88146 14.7357 9.10406 14.6689 9.28213 14.5576C9.46021 14.4463 9.61602 14.2905 9.70506 14.0901C9.66054 14.3127 9.52699 14.5131 9.34891 14.6466C9.17084 14.7802 8.92598 14.8692 8.70339 14.8915C8.4808 14.936 8.2582 14.936 8.03561 14.9137C7.81302 14.8915 7.59042 14.847 7.36783 14.7802Z" fill="#25602E"/>
        <path d="M8.32499 18.0078C8.3695 17.7852 8.34724 17.5626 8.28047 17.3846C8.21369 17.1842 8.08013 17.0061 7.94658 16.8503C7.81302 16.6945 7.63494 16.561 7.45687 16.4274C7.2788 16.2938 7.10072 16.1603 6.92265 16.0267C7.12298 16.1158 7.32331 16.2048 7.52365 16.3384C7.72398 16.4497 7.8798 16.6055 8.03561 16.7613C8.19143 16.9394 8.32498 17.1174 8.3695 17.3623C8.45854 17.5626 8.43628 17.8075 8.32499 18.0078Z" fill="#25602E"/>
        <path d="M12.2649 28.1358C12.0868 27.9355 11.8642 27.8242 11.6194 27.7796C11.3745 27.7351 11.1297 27.7796 10.8848 27.8242C10.3951 27.9355 9.92766 28.1358 9.46021 28.3361C9.88314 28.0468 10.3506 27.8019 10.8625 27.6683C11.1074 27.6238 11.3968 27.5793 11.6639 27.6461C11.9087 27.7351 12.1536 27.9132 12.2649 28.1358Z" fill="#25602E"/>
        <path d="M21.9477 7.12299C21.9922 7.45688 22.0145 7.79077 22.1035 8.08014C22.148 8.23595 22.2148 8.36951 22.3038 8.50306C22.3929 8.63662 22.5264 8.72566 22.6822 8.79243C22.5042 8.79243 22.3484 8.7034 22.2148 8.5921C22.0812 8.45854 22.0145 8.30273 21.9477 8.14691C21.9032 7.96884 21.8809 7.81302 21.8809 7.63495C21.8809 7.43462 21.9032 7.2788 21.9477 7.12299Z" fill="#25602E"/>
        <path d="M19.5659 8.1024C19.7218 8.1024 19.8776 8.08014 20.0111 8.01336C20.1447 7.94658 20.256 7.83529 20.3673 7.72399C20.5676 7.5014 20.7234 7.21203 20.9238 6.94492C20.8792 7.10073 20.8347 7.25655 20.7679 7.41236C20.7012 7.56818 20.6121 7.70173 20.5008 7.83529C20.3895 7.96884 20.256 8.08014 20.0779 8.12466C19.8998 8.16918 19.7218 8.16918 19.5659 8.1024Z" fill="#25602E"/>
        <path d="M30.8292 14.6912C30.6066 14.9805 30.384 15.2254 30.2059 15.537C30.1169 15.6928 30.0501 15.8486 30.0278 16.0045C30.0056 16.1603 30.0278 16.3384 30.0946 16.4942C29.961 16.3606 29.8943 16.1825 29.9165 15.9822C29.9165 15.7819 29.9833 15.6038 30.0723 15.448C30.1614 15.2922 30.2727 15.1363 30.4062 15.0251C30.5398 14.8915 30.6733 14.7802 30.8292 14.6912Z" fill="#25602E"/>
        <path d="M28.3361 13.8453C28.4697 13.9789 28.6255 14.0679 28.8036 14.1124C28.9816 14.157 29.1597 14.1347 29.3378 14.1124C29.6939 14.0679 30.0501 13.9344 30.4062 13.8231C30.0946 14.0457 29.7384 14.2015 29.36 14.2682C29.1597 14.2905 28.9594 14.2905 28.7813 14.2237C28.581 14.157 28.4252 14.0234 28.3361 13.8453Z" fill="#25602E"/>
        <path d="M13.734 31.3634C13.8898 30.9405 14.0901 30.5621 14.1792 30.1392C14.2237 29.9388 14.2682 29.7162 14.246 29.5159C14.2237 29.3156 14.1347 29.1152 13.9566 28.9594C14.1569 29.0484 14.3127 29.271 14.3573 29.4936C14.4018 29.7162 14.3795 29.9611 14.3127 30.1837C14.2014 30.6289 14.0011 31.0073 13.734 31.3634Z" fill="#25602E"/>
        <path d="M16.5832 30.7624C16.4051 30.6733 16.2048 30.6511 16.0045 30.6956C15.8264 30.7401 15.6483 30.8291 15.4702 30.9404C15.1363 31.163 14.847 31.4524 14.5353 31.7195C14.7579 31.3634 15.025 31.0517 15.3812 30.8069C15.5593 30.6956 15.7596 30.5843 15.9822 30.562C16.2048 30.5398 16.4274 30.6066 16.5832 30.7624Z" fill="#25602E"/>
        <path d="M25.7986 30.6734C25.5092 30.2504 25.2198 29.8275 24.8859 29.4491C24.7078 29.271 24.5298 29.093 24.3072 28.9817C24.0846 28.8704 23.8397 28.8258 23.5949 28.9149C23.7062 28.8481 23.8397 28.8036 23.9733 28.8036C24.0401 28.8036 24.1068 28.8036 24.1736 28.8258C24.2404 28.8481 24.3072 28.8704 24.374 28.8926C24.6188 29.0039 24.8191 29.182 24.9972 29.3823C25.3534 29.7385 25.5982 30.2059 25.7986 30.6734Z" fill="#25602E"/>
        <path d="M26.5109 27.4903C26.3105 27.6238 26.177 27.8464 26.1324 28.069C26.0879 28.2916 26.1102 28.5365 26.1324 28.7813C26.1992 29.2488 26.355 29.7162 26.4886 30.2059C26.2437 29.783 26.0657 29.3155 25.9766 28.8036C25.9321 28.5587 25.9321 28.2916 25.9989 28.0467C26.0879 27.7796 26.2883 27.557 26.5109 27.4903Z" fill="#25602E"/>
        <path d="M19.0985 32.5877C19.0317 32.3873 18.9427 32.187 18.8759 31.9867C18.7869 31.7863 18.7201 31.6082 18.6088 31.4302C18.4975 31.2521 18.3639 31.0963 18.2081 30.985C18.0523 30.8737 17.852 30.7846 17.6294 30.7624C17.8297 30.7179 18.0746 30.7624 18.2526 30.8737C18.453 30.985 18.5865 31.1631 18.7201 31.3411C18.9427 31.7195 19.054 32.1647 19.0985 32.5877Z" fill="#25602E"/>
        <path d="M21.7919 30.6288C21.5915 30.6734 21.3912 30.7401 21.2354 30.8737C21.0796 31.0073 20.9683 31.1631 20.8792 31.3411C20.7902 31.5192 20.7012 31.7196 20.6344 31.8976C20.5676 32.098 20.5008 32.2983 20.4341 32.4986C20.4341 32.2983 20.4563 32.0757 20.5008 31.8754C20.5454 31.675 20.6121 31.4747 20.7234 31.2744C20.8347 31.074 20.9683 30.896 21.1464 30.7847C21.3467 30.6511 21.5915 30.6066 21.7919 30.6288Z" fill="#25602E"/>
        <path d="M29.182 27.468C28.9149 27.4903 28.67 27.4903 28.4474 27.5348C28.3361 27.557 28.2248 27.6016 28.1135 27.6683C28.0022 27.7351 27.9132 27.8242 27.8464 27.9132C27.8687 27.7796 27.9354 27.6683 28.0467 27.5793C28.158 27.4903 28.2693 27.4235 28.4029 27.4012C28.5365 27.379 28.67 27.3567 28.8036 27.379C28.9371 27.379 29.0707 27.4235 29.182 27.468Z" fill="#25602E"/>
        <path d="M29.2042 25.0417C29.1597 25.1753 29.1597 25.3311 29.182 25.4424C29.2042 25.5759 29.2487 25.6872 29.3378 25.8208C29.4713 26.0657 29.6717 26.266 29.8497 26.4886C29.7162 26.4218 29.6049 26.3328 29.4936 26.2437C29.3823 26.1547 29.2933 26.0434 29.2042 25.9098C29.1374 25.7763 29.0707 25.6205 29.0707 25.4869C29.0707 25.3088 29.1152 25.153 29.2042 25.0417Z" fill="#25602E"/>
        <path d="M9.88313 10.217C10.1948 10.3506 10.5064 10.5286 10.818 10.6177C10.9738 10.6622 11.1297 10.6845 11.3077 10.6845C11.4635 10.6622 11.6194 10.6177 11.7752 10.5064C11.6861 10.6622 11.5081 10.7512 11.33 10.7958C11.1519 10.8403 10.9516 10.818 10.7958 10.7512C10.6177 10.7067 10.4619 10.6177 10.3061 10.5286C10.1502 10.4396 10.0167 10.3283 9.88313 10.217Z" fill="#25602E"/>
        <path d="M9.57151 12.7991C9.66054 12.6656 9.70506 12.5098 9.72732 12.3762C9.74958 12.2204 9.72732 12.0868 9.6828 11.931C9.59376 11.6416 9.43795 11.3523 9.30439 11.0629C9.41569 11.1742 9.52699 11.3077 9.61602 11.4413C9.70506 11.5749 9.77184 11.7307 9.81636 11.8865C9.86088 12.0423 9.88314 12.2204 9.83862 12.3985C9.7941 12.5543 9.70506 12.6878 9.57151 12.7991Z" fill="#25602E"/>
        <path d="M6.41068 21.97C6.78909 21.8141 7.18976 21.6806 7.54591 21.5025C7.72398 21.4135 7.8798 21.3022 8.01335 21.1464C8.14691 20.9905 8.21369 20.8125 8.21369 20.5899C8.28047 20.7902 8.23595 21.0351 8.10239 21.2131C7.96884 21.3912 7.79076 21.5248 7.61269 21.6361C7.25654 21.8364 6.83361 21.9254 6.41068 21.97Z" fill="#25602E"/>
        <path d="M8.61435 23.7284C8.56983 23.5281 8.43628 23.3723 8.28046 23.261C8.12465 23.1497 7.94657 23.0829 7.74624 23.0384C7.36783 22.9271 6.96716 22.9048 6.54423 22.8603C6.9449 22.7936 7.36783 22.7936 7.7685 22.9049C7.96883 22.9716 8.16917 23.0384 8.32498 23.1942C8.52531 23.3055 8.63661 23.5281 8.61435 23.7284Z" fill="#25602E"/>
        <path d="M8.63662 27.4903C8.99277 27.0896 9.37117 26.6889 9.63829 26.2437C9.77184 26.0211 9.88314 25.7763 9.94992 25.5314C9.99444 25.2866 9.94992 25.0195 9.81636 24.7746C9.99444 24.975 10.1057 25.2643 10.0612 25.5537C10.039 25.8431 9.9054 26.0879 9.77184 26.3328C9.48247 26.778 9.0818 27.1564 8.63662 27.4903Z" fill="#25602E"/>
        <path d="M20.6566 39.5103C21.2577 39.6884 21.9032 38.6645 21.2576 38.4864C20.6121 38.3083 19.9666 39.31 20.6566 39.5103Z" fill="#1D957F"/>
    </g>
    <defs>
        <clipPath id="clip0">
            <rect width="39.2877" height="40" fill="white"/>
        </clipPath>
    </defs>
</svg>